<mxfile host="www.draw.io" modified="2020-02-13T00:31:34.672Z" agent="Mozilla/5.0 (X11; Ubuntu; Linux x86_64; rv:72.0) Gecko/20100101 Firefox/72.0" etag="6rkBQ2Y6OfAq92yODnnz" version="12.6.8" type="github">
  <diagram id="C5RBs43oDa-KdzZeNtuy" name="Page-1">
    <mxGraphModel dx="1352" dy="744" grid="1" gridSize="10" guides="1" tooltips="1" connect="1" arrows="1" fold="1" page="1" pageScale="1" pageWidth="827" pageHeight="1169" math="0" shadow="0">
      <root>
        <mxCell id="WIyWlLk6GJQsqaUBKTNV-0"/>
        <mxCell id="WIyWlLk6GJQsqaUBKTNV-1" parent="WIyWlLk6GJQsqaUBKTNV-0"/>
        <mxCell id="StXHW8grfj3Ol2tfMfFS-2" style="edgeStyle=orthogonalEdgeStyle;rounded=0;orthogonalLoop=1;jettySize=auto;html=1;exitX=0;exitY=0.5;exitDx=0;exitDy=0;entryX=0.5;entryY=0;entryDx=0;entryDy=0;" edge="1" parent="WIyWlLk6GJQsqaUBKTNV-1" source="WIyWlLk6GJQsqaUBKTNV-3" target="StXHW8grfj3Ol2tfMfFS-3">
          <mxGeometry relative="1" as="geometry">
            <mxPoint x="40" y="160" as="targetPoint"/>
          </mxGeometry>
        </mxCell>
        <mxCell id="StXHW8grfj3Ol2tfMfFS-13" style="edgeStyle=orthogonalEdgeStyle;rounded=0;orthogonalLoop=1;jettySize=auto;html=1;" edge="1" parent="WIyWlLk6GJQsqaUBKTNV-1" source="WIyWlLk6GJQsqaUBKTNV-3" target="StXHW8grfj3Ol2tfMfFS-12">
          <mxGeometry relative="1" as="geometry"/>
        </mxCell>
        <mxCell id="StXHW8grfj3Ol2tfMfFS-18" style="edgeStyle=orthogonalEdgeStyle;rounded=0;orthogonalLoop=1;jettySize=auto;html=1;entryX=0.5;entryY=0;entryDx=0;entryDy=0;" edge="1" parent="WIyWlLk6GJQsqaUBKTNV-1" source="WIyWlLk6GJQsqaUBKTNV-3" target="StXHW8grfj3Ol2tfMfFS-19">
          <mxGeometry relative="1" as="geometry">
            <mxPoint x="640" y="150" as="targetPoint"/>
          </mxGeometry>
        </mxCell>
        <mxCell id="StXHW8grfj3Ol2tfMfFS-20" style="edgeStyle=orthogonalEdgeStyle;rounded=0;orthogonalLoop=1;jettySize=auto;html=1;exitX=0;exitY=1;exitDx=0;exitDy=0;entryX=0.5;entryY=0;entryDx=0;entryDy=0;" edge="1" parent="WIyWlLk6GJQsqaUBKTNV-1" source="WIyWlLk6GJQsqaUBKTNV-3" target="StXHW8grfj3Ol2tfMfFS-21">
          <mxGeometry relative="1" as="geometry">
            <mxPoint x="160" y="430" as="targetPoint"/>
            <Array as="points">
              <mxPoint x="310" y="80"/>
              <mxPoint x="310" y="255"/>
              <mxPoint x="160" y="255"/>
            </Array>
          </mxGeometry>
        </mxCell>
        <mxCell id="WIyWlLk6GJQsqaUBKTNV-3" value="Home" style="rounded=1;whiteSpace=wrap;html=1;fontSize=12;glass=0;strokeWidth=1;shadow=0;" parent="WIyWlLk6GJQsqaUBKTNV-1" vertex="1">
          <mxGeometry x="353" y="40" width="120" height="40" as="geometry"/>
        </mxCell>
        <mxCell id="StXHW8grfj3Ol2tfMfFS-3" value="&lt;div&gt;Subforum&lt;/div&gt;&lt;div&gt;&lt;br&gt;&lt;/div&gt;" style="rounded=1;whiteSpace=wrap;html=1;" vertex="1" parent="WIyWlLk6GJQsqaUBKTNV-1">
          <mxGeometry x="140" y="160" width="120" height="60" as="geometry"/>
        </mxCell>
        <mxCell id="StXHW8grfj3Ol2tfMfFS-15" style="edgeStyle=orthogonalEdgeStyle;rounded=0;orthogonalLoop=1;jettySize=auto;html=1;exitX=0.5;exitY=1;exitDx=0;exitDy=0;entryX=0.5;entryY=0;entryDx=0;entryDy=0;" edge="1" parent="WIyWlLk6GJQsqaUBKTNV-1" source="StXHW8grfj3Ol2tfMfFS-12" target="StXHW8grfj3Ol2tfMfFS-14">
          <mxGeometry relative="1" as="geometry"/>
        </mxCell>
        <mxCell id="StXHW8grfj3Ol2tfMfFS-12" value="&lt;div&gt;Login&lt;/div&gt;" style="rounded=1;whiteSpace=wrap;html=1;" vertex="1" parent="WIyWlLk6GJQsqaUBKTNV-1">
          <mxGeometry x="353" y="160" width="120" height="60" as="geometry"/>
        </mxCell>
        <mxCell id="StXHW8grfj3Ol2tfMfFS-14" value="Register" style="rounded=1;whiteSpace=wrap;html=1;" vertex="1" parent="WIyWlLk6GJQsqaUBKTNV-1">
          <mxGeometry x="353" y="280" width="120" height="60" as="geometry"/>
        </mxCell>
        <mxCell id="StXHW8grfj3Ol2tfMfFS-19" value="&lt;div&gt;Admin&lt;/div&gt;" style="rounded=1;whiteSpace=wrap;html=1;" vertex="1" parent="WIyWlLk6GJQsqaUBKTNV-1">
          <mxGeometry x="580" y="160" width="120" height="60" as="geometry"/>
        </mxCell>
        <mxCell id="StXHW8grfj3Ol2tfMfFS-21" value="&lt;div&gt;User Profile&lt;/div&gt;" style="rounded=1;whiteSpace=wrap;html=1;" vertex="1" parent="WIyWlLk6GJQsqaUBKTNV-1">
          <mxGeometry x="100" y="440" width="120" height="60" as="geometry"/>
        </mxCell>
      </root>
    </mxGraphModel>
  </diagram>
</mxfile>
